<mxfile host="app.diagrams.net" modified="2020-11-09T07:00:52.974Z" agent="5.0 (Windows NT 10.0; Win64; x64) AppleWebKit/537.36 (KHTML, like Gecko) Chrome/86.0.4240.183 Safari/537.36" etag="vXHhfp1lu0HCAxR27Vgb" version="13.9.1" type="github">
  <diagram id="kgpKYQtTHZ0yAKxKKP6v" name="Page-1">
    <mxGraphModel dx="625" dy="432" grid="1" gridSize="10" guides="1" tooltips="1" connect="1" arrows="1" fold="1" page="1" pageScale="1" pageWidth="850" pageHeight="1100" math="0" shadow="0">
      <root>
        <mxCell id="0" />
        <mxCell id="1" parent="0" />
        <mxCell id="SLvzEg4bZfgPy1z2sesY-39" value="クライアント&#xa;ノートＰＣ" style="shape=umlLifeline;perimeter=lifelinePerimeter;container=1;collapsible=0;recursiveResize=0;rounded=0;shadow=0;strokeWidth=1;fontStyle=1" vertex="1" parent="1">
          <mxGeometry x="350" y="360" width="100" height="640" as="geometry" />
        </mxCell>
        <mxCell id="SLvzEg4bZfgPy1z2sesY-40" value="" style="points=[];perimeter=orthogonalPerimeter;rounded=0;shadow=0;strokeWidth=1;fontStyle=1" vertex="1" parent="SLvzEg4bZfgPy1z2sesY-39">
          <mxGeometry x="45" y="70" width="10" height="320" as="geometry" />
        </mxCell>
        <mxCell id="SLvzEg4bZfgPy1z2sesY-1" value="Loop[1,*]" style="shape=umlFrame;whiteSpace=wrap;html=1;width=70;height=30;fontStyle=1" vertex="1" parent="1">
          <mxGeometry x="140" y="420" width="1100" height="300" as="geometry" />
        </mxCell>
        <mxCell id="3nuBFxr9cyL0pnOWT2aG-1" value="ユーザ" style="shape=umlLifeline;perimeter=lifelinePerimeter;container=1;collapsible=0;recursiveResize=0;rounded=0;shadow=0;strokeWidth=1;fontStyle=1" parent="1" vertex="1">
          <mxGeometry x="200" y="360" width="100" height="640" as="geometry" />
        </mxCell>
        <mxCell id="3nuBFxr9cyL0pnOWT2aG-2" value="" style="points=[];perimeter=orthogonalPerimeter;rounded=0;shadow=0;strokeWidth=1;fontStyle=1" parent="3nuBFxr9cyL0pnOWT2aG-1" vertex="1">
          <mxGeometry x="45" y="70" width="10" height="320" as="geometry" />
        </mxCell>
        <mxCell id="3nuBFxr9cyL0pnOWT2aG-5" value="クライアント&#xa;ノートＰＣ" style="shape=umlLifeline;perimeter=lifelinePerimeter;container=1;collapsible=0;recursiveResize=0;rounded=0;shadow=0;strokeWidth=1;fontStyle=1" parent="1" vertex="1">
          <mxGeometry x="500" y="360" width="100" height="640" as="geometry" />
        </mxCell>
        <mxCell id="3nuBFxr9cyL0pnOWT2aG-6" value="" style="points=[];perimeter=orthogonalPerimeter;rounded=0;shadow=0;strokeWidth=1;fontStyle=1" parent="3nuBFxr9cyL0pnOWT2aG-5" vertex="1">
          <mxGeometry x="45" y="70" width="10" height="530" as="geometry" />
        </mxCell>
        <mxCell id="SLvzEg4bZfgPy1z2sesY-2" value="サーバ" style="shape=umlLifeline;perimeter=lifelinePerimeter;container=1;collapsible=0;recursiveResize=0;rounded=0;shadow=0;strokeWidth=1;fontStyle=1" vertex="1" parent="1">
          <mxGeometry x="940" y="360" width="100" height="640" as="geometry" />
        </mxCell>
        <mxCell id="SLvzEg4bZfgPy1z2sesY-3" value="" style="points=[];perimeter=orthogonalPerimeter;rounded=0;shadow=0;strokeWidth=1;fontStyle=1" vertex="1" parent="SLvzEg4bZfgPy1z2sesY-2">
          <mxGeometry x="45" y="80" width="10" height="520" as="geometry" />
        </mxCell>
        <mxCell id="SLvzEg4bZfgPy1z2sesY-4" value="データストア" style="shape=umlLifeline;perimeter=lifelinePerimeter;container=1;collapsible=0;recursiveResize=0;rounded=0;shadow=0;strokeWidth=1;fontStyle=1" vertex="1" parent="1">
          <mxGeometry x="1100" y="360" width="100" height="640" as="geometry" />
        </mxCell>
        <mxCell id="SLvzEg4bZfgPy1z2sesY-5" value="" style="points=[];perimeter=orthogonalPerimeter;rounded=0;shadow=0;strokeWidth=1;fontStyle=1" vertex="1" parent="SLvzEg4bZfgPy1z2sesY-4">
          <mxGeometry x="45" y="80" width="10" height="520" as="geometry" />
        </mxCell>
        <mxCell id="SLvzEg4bZfgPy1z2sesY-14" value="コンピュータ名&lt;br&gt;SSID" style="html=1;verticalAlign=bottom;endArrow=block;exitX=1.122;exitY=0.463;exitDx=0;exitDy=0;exitPerimeter=0;fontStyle=1" edge="1" parent="1" source="SLvzEg4bZfgPy1z2sesY-3" target="SLvzEg4bZfgPy1z2sesY-5">
          <mxGeometry width="80" relative="1" as="geometry">
            <mxPoint x="730" y="480" as="sourcePoint" />
            <mxPoint x="1140" y="680" as="targetPoint" />
          </mxGeometry>
        </mxCell>
        <mxCell id="SLvzEg4bZfgPy1z2sesY-16" value="セカンダリ&#xa;ルータ" style="shape=umlLifeline;perimeter=lifelinePerimeter;container=1;collapsible=0;recursiveResize=0;rounded=0;shadow=0;strokeWidth=1;fontStyle=1" vertex="1" parent="1">
          <mxGeometry x="640" y="360" width="100" height="640" as="geometry" />
        </mxCell>
        <mxCell id="SLvzEg4bZfgPy1z2sesY-17" value="" style="points=[];perimeter=orthogonalPerimeter;rounded=0;shadow=0;strokeWidth=1;fontStyle=1" vertex="1" parent="SLvzEg4bZfgPy1z2sesY-16">
          <mxGeometry x="45" y="70" width="10" height="530" as="geometry" />
        </mxCell>
        <mxCell id="3nuBFxr9cyL0pnOWT2aG-8" value="アプリ実行" style="verticalAlign=bottom;endArrow=block;shadow=0;strokeWidth=1;entryX=-0.083;entryY=0.056;entryDx=0;entryDy=0;entryPerimeter=0;fontStyle=1" parent="1" source="3nuBFxr9cyL0pnOWT2aG-2" target="3nuBFxr9cyL0pnOWT2aG-6" edge="1">
          <mxGeometry relative="1" as="geometry">
            <mxPoint x="495" y="440" as="sourcePoint" />
            <mxPoint x="720" y="458" as="targetPoint" />
          </mxGeometry>
        </mxCell>
        <mxCell id="SLvzEg4bZfgPy1z2sesY-18" value="プライマリ&#xa;ルータ" style="shape=umlLifeline;perimeter=lifelinePerimeter;container=1;collapsible=0;recursiveResize=0;rounded=0;shadow=0;strokeWidth=1;fontStyle=1" vertex="1" parent="1">
          <mxGeometry x="770" y="360" width="100" height="640" as="geometry" />
        </mxCell>
        <mxCell id="SLvzEg4bZfgPy1z2sesY-19" value="" style="points=[];perimeter=orthogonalPerimeter;rounded=0;shadow=0;strokeWidth=1;fontStyle=1" vertex="1" parent="SLvzEg4bZfgPy1z2sesY-18">
          <mxGeometry x="45" y="70" width="10" height="530" as="geometry" />
        </mxCell>
        <mxCell id="SLvzEg4bZfgPy1z2sesY-12" value="コンピュータ名&lt;br&gt;SSID" style="html=1;verticalAlign=bottom;endArrow=block;exitX=1.258;exitY=0.368;exitDx=0;exitDy=0;exitPerimeter=0;fontStyle=1" edge="1" parent="1" source="3nuBFxr9cyL0pnOWT2aG-6" target="SLvzEg4bZfgPy1z2sesY-19">
          <mxGeometry width="80" relative="1" as="geometry">
            <mxPoint x="605" y="470" as="sourcePoint" />
            <mxPoint x="800" y="646" as="targetPoint" />
          </mxGeometry>
        </mxCell>
        <mxCell id="SLvzEg4bZfgPy1z2sesY-21" value="コンピュータ名&lt;br&gt;SSID" style="html=1;verticalAlign=bottom;endArrow=block;exitX=1.228;exitY=0.435;exitDx=0;exitDy=0;exitPerimeter=0;fontStyle=1" edge="1" parent="1" source="SLvzEg4bZfgPy1z2sesY-19" target="SLvzEg4bZfgPy1z2sesY-3">
          <mxGeometry width="80" relative="1" as="geometry">
            <mxPoint x="825" y="550" as="sourcePoint" />
            <mxPoint x="860" y="470" as="targetPoint" />
          </mxGeometry>
        </mxCell>
        <mxCell id="SLvzEg4bZfgPy1z2sesY-22" value="RSSI" style="html=1;verticalAlign=bottom;endArrow=block;entryX=0.896;entryY=0.133;entryDx=0;entryDy=0;entryPerimeter=0;fontStyle=1" edge="1" parent="1" target="3nuBFxr9cyL0pnOWT2aG-6">
          <mxGeometry width="80" relative="1" as="geometry">
            <mxPoint x="683" y="500" as="sourcePoint" />
            <mxPoint x="560" y="499" as="targetPoint" />
          </mxGeometry>
        </mxCell>
        <mxCell id="SLvzEg4bZfgPy1z2sesY-23" value="コンピュータ名" style="html=1;verticalAlign=bottom;endArrow=block;fontStyle=1" edge="1" parent="1">
          <mxGeometry x="0.1695" width="80" relative="1" as="geometry">
            <mxPoint x="560" y="530" as="sourcePoint" />
            <mxPoint x="556" y="565" as="targetPoint" />
            <Array as="points">
              <mxPoint x="610" y="530" />
              <mxPoint x="610" y="565" />
            </Array>
            <mxPoint as="offset" />
          </mxGeometry>
        </mxCell>
        <mxCell id="SLvzEg4bZfgPy1z2sesY-24" value="http://192.168.10.163/sample" style="html=1;verticalAlign=bottom;endArrow=block;fontStyle=1" edge="1" parent="1" target="3nuBFxr9cyL0pnOWT2aG-6">
          <mxGeometry width="80" relative="1" as="geometry">
            <mxPoint x="250" y="791" as="sourcePoint" />
            <mxPoint x="540" y="792" as="targetPoint" />
          </mxGeometry>
        </mxCell>
        <mxCell id="SLvzEg4bZfgPy1z2sesY-25" value="HTTPリクエスト" style="html=1;verticalAlign=bottom;endArrow=block;entryX=-0.012;entryY=0.7;entryDx=0;entryDy=0;entryPerimeter=0;exitX=1.082;exitY=0.7;exitDx=0;exitDy=0;exitPerimeter=0;fontStyle=1" edge="1" parent="1" source="3nuBFxr9cyL0pnOWT2aG-6" target="SLvzEg4bZfgPy1z2sesY-19">
          <mxGeometry width="80" relative="1" as="geometry">
            <mxPoint x="570" y="766" as="sourcePoint" />
            <mxPoint x="810" y="767" as="targetPoint" />
          </mxGeometry>
        </mxCell>
        <mxCell id="SLvzEg4bZfgPy1z2sesY-26" value="HTTPリクエスト" style="html=1;verticalAlign=bottom;endArrow=block;exitX=1.054;exitY=0.766;exitDx=0;exitDy=0;exitPerimeter=0;fontStyle=1" edge="1" parent="1" source="SLvzEg4bZfgPy1z2sesY-19" target="SLvzEg4bZfgPy1z2sesY-3">
          <mxGeometry width="80" relative="1" as="geometry">
            <mxPoint x="830" y="790" as="sourcePoint" />
            <mxPoint x="985" y="818" as="targetPoint" />
          </mxGeometry>
        </mxCell>
        <mxCell id="SLvzEg4bZfgPy1z2sesY-32" value="マップ更新" style="html=1;verticalAlign=bottom;endArrow=open;dashed=1;endSize=8;exitX=0.122;exitY=0.511;exitDx=0;exitDy=0;exitPerimeter=0;fontStyle=1" edge="1" parent="1" source="SLvzEg4bZfgPy1z2sesY-5" target="SLvzEg4bZfgPy1z2sesY-3">
          <mxGeometry relative="1" as="geometry">
            <mxPoint x="1143" y="714" as="sourcePoint" />
            <mxPoint x="994" y="714" as="targetPoint" />
          </mxGeometry>
        </mxCell>
        <mxCell id="SLvzEg4bZfgPy1z2sesY-33" value="HTTPレスポンス" style="html=1;verticalAlign=bottom;endArrow=open;dashed=1;endSize=8;exitX=-0.084;exitY=0.827;exitDx=0;exitDy=0;exitPerimeter=0;fontStyle=1" edge="1" parent="1" source="SLvzEg4bZfgPy1z2sesY-3" target="SLvzEg4bZfgPy1z2sesY-18">
          <mxGeometry relative="1" as="geometry">
            <mxPoint x="980" y="852" as="sourcePoint" />
            <mxPoint x="829.9999999999999" y="821.44" as="targetPoint" />
          </mxGeometry>
        </mxCell>
        <mxCell id="SLvzEg4bZfgPy1z2sesY-34" value="HTTPレスポンス" style="html=1;verticalAlign=bottom;endArrow=open;dashed=1;endSize=8;exitX=0.5;exitY=0.873;exitDx=0;exitDy=0;exitPerimeter=0;entryX=0.969;entryY=0.872;entryDx=0;entryDy=0;entryPerimeter=0;fontStyle=1" edge="1" parent="1" source="SLvzEg4bZfgPy1z2sesY-19" target="3nuBFxr9cyL0pnOWT2aG-6">
          <mxGeometry relative="1" as="geometry">
            <mxPoint x="759.09" y="840.0000000000001" as="sourcePoint" />
            <mxPoint x="600.0000000000001" y="840.41" as="targetPoint" />
          </mxGeometry>
        </mxCell>
        <mxCell id="SLvzEg4bZfgPy1z2sesY-35" value="マップ表示" style="html=1;verticalAlign=bottom;endArrow=open;dashed=1;endSize=8;fontStyle=1;entryX=0.502;entryY=0.876;entryDx=0;entryDy=0;entryPerimeter=0;" edge="1" parent="1" target="3nuBFxr9cyL0pnOWT2aG-1">
          <mxGeometry relative="1" as="geometry">
            <mxPoint x="545" y="921" as="sourcePoint" />
            <mxPoint x="410" y="927" as="targetPoint" />
          </mxGeometry>
        </mxCell>
        <mxCell id="SLvzEg4bZfgPy1z2sesY-38" value="" style="points=[];perimeter=orthogonalPerimeter;rounded=0;shadow=0;strokeWidth=1;fontStyle=1" vertex="1" parent="1">
          <mxGeometry x="100" y="500" width="10" height="530" as="geometry" />
        </mxCell>
      </root>
    </mxGraphModel>
  </diagram>
</mxfile>
